<svg width="32" height="32" viewBox="0 0 32 32" fill="none" xmlns="http://www.w3.org/2000/svg">
<path d="M27.4039 13.0858C26.7167 10.2672 25.5466 7.65208 24.011 5.60755C22.4805 3.56976 20.5335 2.0323 18.2823 1.52207C17.249 1.28789 16.0783 1.38872 15.1277 1.84334C14.154 2.30908 13.3076 3.21745 13.3107 4.56157C13.3121 5.15205 13.4064 5.7874 13.4932 6.372L13.4993 6.41273C13.6827 7.64873 13.845 8.82152 13.5358 10.001C13.241 11.1254 12.4792 12.3727 10.5449 13.6144C10.4107 13.7005 10.2753 13.7868 10.1377 13.8745C10.0983 13.8996 10.0587 13.9248 10.0189 13.9502C8.26541 15.0666 6.09037 16.4514 5.20707 18.7911C4.16834 21.5426 4.5221 24.0604 5.81615 26.0652C7.0894 28.0377 9.21672 29.4321 11.611 30.1261C16.3963 31.5133 22.5811 30.1849 26.0039 24.5833C28.1154 21.1278 28.3271 16.8728 27.4039 13.0858ZM8.30202 12.2517C9.70325 12.2517 10.8722 11.8295 11.6965 11.0339C12.5201 10.239 12.902 9.16457 12.902 8.05166C12.902 6.98163 12.5898 5.94259 11.9353 5.15147C11.2649 4.34122 10.2817 3.85166 9.10203 3.85166C7.69716 3.85166 6.58477 4.27875 5.84512 5.13539C5.12917 5.96459 4.90202 7.03744 4.90202 8.05166C4.90202 9.02705 5.07195 10.0515 5.60261 10.8621C6.17577 11.7377 7.09842 12.2517 8.30202 12.2517Z" fill="#D16D45" stroke="#EDE6E4" stroke-width="2"/>
</svg>
